<mxfile host="app.diagrams.net" modified="2021-03-19T06:36:36.039Z" agent="5.0 (Macintosh; Intel Mac OS X 11_2_3) AppleWebKit/537.36 (KHTML, like Gecko) Chrome/89.0.4389.82 Safari/537.36" etag="M19TxmCNIX9wvBHvwYgE" version="14.4.9" type="github">
  <diagram id="kgpKYQtTHZ0yAKxKKP6v" name="Page-1">
    <mxGraphModel dx="1580" dy="1082" grid="1" gridSize="10" guides="1" tooltips="1" connect="1" arrows="1" fold="1" page="1" pageScale="1" pageWidth="850" pageHeight="1100" math="0" shadow="0">
      <root>
        <mxCell id="0" />
        <mxCell id="1" parent="0" />
        <mxCell id="3nuBFxr9cyL0pnOWT2aG-5" value=":Internal Button" style="shape=umlLifeline;perimeter=lifelinePerimeter;container=1;collapsible=0;recursiveResize=0;rounded=0;shadow=0;strokeWidth=1;" parent="1" vertex="1">
          <mxGeometry x="300" y="80" width="100" height="720" as="geometry" />
        </mxCell>
        <mxCell id="3nuBFxr9cyL0pnOWT2aG-6" value="" style="points=[];perimeter=orthogonalPerimeter;rounded=0;shadow=0;strokeWidth=1;" parent="3nuBFxr9cyL0pnOWT2aG-5" vertex="1">
          <mxGeometry x="45" y="80" width="10" height="510" as="geometry" />
        </mxCell>
        <mxCell id="3nuBFxr9cyL0pnOWT2aG-8" value="push internal button" style="verticalAlign=bottom;endArrow=open;entryX=0;entryY=0;shadow=0;strokeWidth=1;endFill=0;" parent="1" source="mMslgilH--ej7KOQl8Mb-1" target="3nuBFxr9cyL0pnOWT2aG-6" edge="1">
          <mxGeometry relative="1" as="geometry">
            <mxPoint x="175" y="160.0000000000001" as="sourcePoint" />
          </mxGeometry>
        </mxCell>
        <mxCell id="mMslgilH--ej7KOQl8Mb-1" value="" style="shape=umlLifeline;participant=umlActor;perimeter=lifelinePerimeter;whiteSpace=wrap;html=1;container=1;collapsible=0;recursiveResize=0;verticalAlign=top;spacingTop=36;outlineConnect=0;" vertex="1" parent="1">
          <mxGeometry x="160" y="80" width="20" height="710" as="geometry" />
        </mxCell>
        <mxCell id="mMslgilH--ej7KOQl8Mb-12" value="" style="edgeStyle=orthogonalEdgeStyle;rounded=0;orthogonalLoop=1;jettySize=auto;html=1;endArrow=open;endFill=0;" edge="1" parent="1" source="mMslgilH--ej7KOQl8Mb-2" target="mMslgilH--ej7KOQl8Mb-6">
          <mxGeometry relative="1" as="geometry">
            <Array as="points">
              <mxPoint x="610" y="260" />
              <mxPoint x="610" y="260" />
            </Array>
          </mxGeometry>
        </mxCell>
        <mxCell id="mMslgilH--ej7KOQl8Mb-13" value="Move" style="edgeLabel;html=1;align=center;verticalAlign=middle;resizable=0;points=[];" vertex="1" connectable="0" parent="mMslgilH--ej7KOQl8Mb-12">
          <mxGeometry x="0.02" y="2" relative="1" as="geometry">
            <mxPoint x="-11.5" y="-8" as="offset" />
          </mxGeometry>
        </mxCell>
        <mxCell id="mMslgilH--ej7KOQl8Mb-33" style="edgeStyle=orthogonalEdgeStyle;rounded=0;orthogonalLoop=1;jettySize=auto;html=1;endArrow=block;endFill=1;" edge="1" parent="1" source="mMslgilH--ej7KOQl8Mb-2" target="3nuBFxr9cyL0pnOWT2aG-5">
          <mxGeometry relative="1" as="geometry">
            <Array as="points">
              <mxPoint x="480" y="660" />
              <mxPoint x="480" y="660" />
            </Array>
          </mxGeometry>
        </mxCell>
        <mxCell id="mMslgilH--ej7KOQl8Mb-2" value="System" style="shape=umlLifeline;perimeter=lifelinePerimeter;container=1;collapsible=0;recursiveResize=0;rounded=0;shadow=0;strokeWidth=1;" vertex="1" parent="1">
          <mxGeometry x="480" y="125" width="120" height="575" as="geometry" />
        </mxCell>
        <mxCell id="mMslgilH--ej7KOQl8Mb-3" value="" style="points=[];perimeter=orthogonalPerimeter;rounded=0;shadow=0;strokeWidth=1;" vertex="1" parent="mMslgilH--ej7KOQl8Mb-2">
          <mxGeometry x="55" y="80" width="10" height="350" as="geometry" />
        </mxCell>
        <mxCell id="mMslgilH--ej7KOQl8Mb-10" value="system changes idle to busy&amp;nbsp;" style="text;html=1;align=center;verticalAlign=middle;resizable=0;points=[];autosize=1;" vertex="1" parent="mMslgilH--ej7KOQl8Mb-2">
          <mxGeometry x="40" y="90" width="170" height="20" as="geometry" />
        </mxCell>
        <mxCell id="mMslgilH--ej7KOQl8Mb-4" value="select direction" style="verticalAlign=bottom;endArrow=open;shadow=0;strokeWidth=1;endFill=0;" edge="1" parent="1">
          <mxGeometry relative="1" as="geometry">
            <mxPoint x="360" y="170" as="sourcePoint" />
            <mxPoint x="520" y="170" as="targetPoint" />
          </mxGeometry>
        </mxCell>
        <mxCell id="mMslgilH--ej7KOQl8Mb-5" value="light onÂ " style="verticalAlign=bottom;endArrow=open;dashed=1;endSize=8;shadow=0;strokeWidth=1;" edge="1" parent="1" source="mMslgilH--ej7KOQl8Mb-2" target="3nuBFxr9cyL0pnOWT2aG-5">
          <mxGeometry x="0.0588" y="-9" relative="1" as="geometry">
            <mxPoint x="360" y="229.49999999999977" as="targetPoint" />
            <mxPoint x="510" y="229" as="sourcePoint" />
            <Array as="points">
              <mxPoint x="445" y="229.5" />
            </Array>
            <mxPoint as="offset" />
          </mxGeometry>
        </mxCell>
        <mxCell id="mMslgilH--ej7KOQl8Mb-6" value="Elevator" style="shape=umlLifeline;perimeter=lifelinePerimeter;container=1;collapsible=0;recursiveResize=0;rounded=0;shadow=0;strokeWidth=1;" vertex="1" parent="1">
          <mxGeometry x="650" y="80" width="100" height="600" as="geometry" />
        </mxCell>
        <mxCell id="mMslgilH--ej7KOQl8Mb-7" value="" style="points=[];perimeter=orthogonalPerimeter;rounded=0;shadow=0;strokeWidth=1;" vertex="1" parent="mMslgilH--ej7KOQl8Mb-6">
          <mxGeometry x="45" y="80" width="10" height="400" as="geometry" />
        </mxCell>
        <mxCell id="mMslgilH--ej7KOQl8Mb-9" style="edgeStyle=orthogonalEdgeStyle;rounded=0;orthogonalLoop=1;jettySize=auto;html=1;endArrow=open;endFill=0;" edge="1" parent="1" source="mMslgilH--ej7KOQl8Mb-3" target="mMslgilH--ej7KOQl8Mb-7">
          <mxGeometry relative="1" as="geometry">
            <Array as="points">
              <mxPoint x="600" y="190" />
              <mxPoint x="600" y="190" />
            </Array>
          </mxGeometry>
        </mxCell>
        <mxCell id="mMslgilH--ej7KOQl8Mb-14" style="edgeStyle=orthogonalEdgeStyle;rounded=0;orthogonalLoop=1;jettySize=auto;html=1;endArrow=block;endFill=1;" edge="1" parent="1" source="mMslgilH--ej7KOQl8Mb-7" target="mMslgilH--ej7KOQl8Mb-2">
          <mxGeometry relative="1" as="geometry">
            <Array as="points">
              <mxPoint x="610" y="320" />
              <mxPoint x="610" y="320" />
            </Array>
          </mxGeometry>
        </mxCell>
        <mxCell id="mMslgilH--ej7KOQl8Mb-15" value="controlOrder(floor)" style="text;html=1;align=center;verticalAlign=middle;resizable=0;points=[];autosize=1;" vertex="1" parent="1">
          <mxGeometry x="560" y="300" width="110" height="20" as="geometry" />
        </mxCell>
        <mxCell id="mMslgilH--ej7KOQl8Mb-16" value="Door" style="shape=umlLifeline;perimeter=lifelinePerimeter;container=1;collapsible=0;recursiveResize=0;rounded=0;shadow=0;strokeWidth=1;" vertex="1" parent="1">
          <mxGeometry x="800" y="440" width="100" height="250" as="geometry" />
        </mxCell>
        <mxCell id="mMslgilH--ej7KOQl8Mb-17" value="" style="points=[];perimeter=orthogonalPerimeter;rounded=0;shadow=0;strokeWidth=1;" vertex="1" parent="mMslgilH--ej7KOQl8Mb-16">
          <mxGeometry x="45" y="80" width="10" height="160" as="geometry" />
        </mxCell>
        <mxCell id="mMslgilH--ej7KOQl8Mb-18" value="" style="edgeStyle=orthogonalEdgeStyle;rounded=0;orthogonalLoop=1;jettySize=auto;html=1;endArrow=block;endFill=1;exitX=1.3;exitY=0.945;exitDx=0;exitDy=0;exitPerimeter=0;entryX=0.5;entryY=0.886;entryDx=0;entryDy=0;entryPerimeter=0;" edge="1" parent="1" source="mMslgilH--ej7KOQl8Mb-3" target="mMslgilH--ej7KOQl8Mb-7">
          <mxGeometry relative="1" as="geometry">
            <mxPoint x="680" y="396" as="targetPoint" />
            <Array as="points">
              <mxPoint x="610" y="536" />
              <mxPoint x="610" y="530" />
              <mxPoint x="700" y="530" />
            </Array>
          </mxGeometry>
        </mxCell>
        <mxCell id="mMslgilH--ej7KOQl8Mb-19" value="Stops elevator" style="text;html=1;align=center;verticalAlign=middle;resizable=0;points=[];autosize=1;" vertex="1" parent="1">
          <mxGeometry x="580" y="510" width="90" height="20" as="geometry" />
        </mxCell>
        <mxCell id="mMslgilH--ej7KOQl8Mb-20" value="create" style="text;html=1;align=center;verticalAlign=middle;resizable=0;points=[];autosize=1;" vertex="1" parent="1">
          <mxGeometry x="740" y="520" width="50" height="20" as="geometry" />
        </mxCell>
        <mxCell id="mMslgilH--ej7KOQl8Mb-23" style="edgeStyle=orthogonalEdgeStyle;rounded=0;orthogonalLoop=1;jettySize=auto;html=1;endArrow=block;endFill=1;entryX=-0.224;entryY=0.304;entryDx=0;entryDy=0;entryPerimeter=0;" edge="1" parent="1" source="mMslgilH--ej7KOQl8Mb-2" target="mMslgilH--ej7KOQl8Mb-17">
          <mxGeometry relative="1" as="geometry">
            <Array as="points">
              <mxPoint x="775" y="550" />
              <mxPoint x="775" y="569" />
            </Array>
          </mxGeometry>
        </mxCell>
        <mxCell id="mMslgilH--ej7KOQl8Mb-24" value="openDoor()" style="text;html=1;align=center;verticalAlign=middle;resizable=0;points=[];autosize=1;" vertex="1" parent="1">
          <mxGeometry x="770" y="550" width="80" height="20" as="geometry" />
        </mxCell>
        <mxCell id="mMslgilH--ej7KOQl8Mb-26" style="edgeStyle=orthogonalEdgeStyle;rounded=0;orthogonalLoop=1;jettySize=auto;html=1;endArrow=block;endFill=1;" edge="1" parent="1" source="mMslgilH--ej7KOQl8Mb-17">
          <mxGeometry relative="1" as="geometry">
            <mxPoint x="160" y="530" as="targetPoint" />
          </mxGeometry>
        </mxCell>
        <mxCell id="mMslgilH--ej7KOQl8Mb-27" value="sendDestinationStatus()" style="text;html=1;align=center;verticalAlign=middle;resizable=0;points=[];autosize=1;" vertex="1" parent="1">
          <mxGeometry x="330" y="530" width="140" height="20" as="geometry" />
        </mxCell>
        <mxCell id="mMslgilH--ej7KOQl8Mb-30" style="edgeStyle=orthogonalEdgeStyle;rounded=0;orthogonalLoop=1;jettySize=auto;html=1;endArrow=block;endFill=1;entryX=0.474;entryY=0.854;entryDx=0;entryDy=0;entryPerimeter=0;" edge="1" parent="1" source="mMslgilH--ej7KOQl8Mb-1" target="mMslgilH--ej7KOQl8Mb-2">
          <mxGeometry relative="1" as="geometry">
            <mxPoint x="220" y="590" as="sourcePoint" />
            <mxPoint x="179.32352941176464" y="455" as="targetPoint" />
            <Array as="points">
              <mxPoint x="190" y="560" />
              <mxPoint x="190" y="610" />
              <mxPoint x="537" y="610" />
            </Array>
          </mxGeometry>
        </mxCell>
        <mxCell id="mMslgilH--ej7KOQl8Mb-32" value="passengerStatus" style="text;html=1;align=center;verticalAlign=middle;resizable=0;points=[];autosize=1;" vertex="1" parent="1">
          <mxGeometry x="195" y="590" width="110" height="20" as="geometry" />
        </mxCell>
        <mxCell id="mMslgilH--ej7KOQl8Mb-34" value="switch internal button off&amp;nbsp;" style="text;html=1;align=center;verticalAlign=middle;resizable=0;points=[];autosize=1;" vertex="1" parent="1">
          <mxGeometry x="365" y="630" width="150" height="20" as="geometry" />
        </mxCell>
      </root>
    </mxGraphModel>
  </diagram>
</mxfile>
